#include <pitches.h>

//##############**"Titanic" **##############//
int notes[] = {
NOTE_E4, NOTE_B4, NOTE_E5, NOTE_E5, NOTE_E5, NOTE_B4, NOTE_E4, NOTE_E4, NOTE_B4, NOTE_E5, 
NOTE_E5, NOTE_E5, NOTE_B4, NOTE_E4, NOTE_E4, NOTE_B4, NOTE_E5, NOTE_E5, NOTE_E5, NOTE_B4, 
NOTE_E4, NOTE_E4, NOTE_B4, NOTE_E5, NOTE_E5, NOTE_E5, NOTE_D5, NOTE_E4, NOTE_B4, NOTE_E5, 
NOTE_E5, NOTE_E5, NOTE_B4, NOTE_E4, NOTE_E4, NOTE_B4, NOTE_E5, NOTE_E5, NOTE_E5, NOTE_B4, 
NOTE_F5, NOTE_E4, NOTE_B4, NOTE_E5, NOTE_E5, NOTE_E5, NOTE_B4, NOTE_E4,
NOTE_E4, NOTE_B4, NOTE_E5, NOTE_E5, NOTE_E5, NOTE_D5, NOTE_E5, NOTE_E4, NOTE_E4, NOTE_E4, 
NOTE_D4, NOTE_B3, NOTE_E4, NOTE_E4, NOTE_E4, NOTE_B3, NOTE_E4,
NOTE_D4, NOTE_E4, NOTE_F4, NOTE_G4, NOTE_F4, NOTE_E4, NOTE_E4, NOTE_E4, NOTE_E4
};

int durations[] = {
8,8,8,8,8,8,4,8,8,8,8,8,8,4,8,8,8,8,8,8,4,8,8,8,8,4,4,8,8,8,8,8,8,4,8,8,8,8,8,8,4,8,
8,8,8,8,8,1,
8,8,8,8,4,4,4,8,4,4,8,8,8,8,4,8,8,4,8,4,8,8,4,8,4,1
};
//###########End of Titanic#############//